HIERARCHY
ROOT Hips
{
    OFFSET   0.000000   0.000000   0.000000
    CHANNELS 6 Xposition Yposition Zposition Zrotation Xrotation Yrotation
    JOINT Chest
    {
        OFFSET   0.000000   8.007240   0.000000
        CHANNELS 3 Zrotation Xrotation Yrotation
        JOINT Chest2
        {
            OFFSET   0.000000  22.077100   0.000000
            CHANNELS 3 Zrotation Xrotation Yrotation
            JOINT Neck
            {
                OFFSET   0.000000  23.254800   0.000000
                CHANNELS 3 Zrotation Xrotation Yrotation
                JOINT Head
                {
                    OFFSET   0.000000  14.370000   1.956600
                    CHANNELS 3 Zrotation Xrotation Yrotation
                    End Site
                    {
                        OFFSET   0.000000  19.566000   0.000000
                    }
                }
            }
            JOINT LeftCollar
            {
                OFFSET   3.911900  19.017000  -0.467064
                CHANNELS 3 Zrotation Xrotation Yrotation
                JOINT LeftShoulder
                {
                    OFFSET  10.383700   0.000000   0.000000
                    CHANNELS 3 Zrotation Xrotation Yrotation
                    JOINT LeftElbow
                    {
                        OFFSET  26.662100   0.001476   0.000517
                        CHANNELS 3 Zrotation Xrotation Yrotation
                        JOINT LeftWrist
                        {
                            OFFSET  28.869000  -0.000025  -0.000106
                            CHANNELS 3 Zrotation Xrotation Yrotation
                            JOINT LeftFinger0
                            {
                                OFFSET   2.044660  -2.323460   3.252850
                                CHANNELS 3 Zrotation Xrotation Yrotation
                                JOINT LeftFinger01
                                {
                                    OFFSET   3.088130   0.000000   0.000000
                                    CHANNELS 3 Zrotation Xrotation Yrotation
                                    JOINT LeftFinger02
                                    {
                                        OFFSET   2.639460   0.000000   0.000000
                                        CHANNELS 3 Zrotation Xrotation Yrotation
                                        End Site
                                        {
                                            OFFSET   2.582190   0.000000   0.000000
                                        }
                                    }
                                }
                            }
                            JOINT LeftFinger1
                            {
                                OFFSET   8.364480   0.000000   3.252850
                                CHANNELS 3 Zrotation Xrotation Yrotation
                                JOINT LeftFinger11
                                {
                                    OFFSET   4.646930   0.000000   0.000000
                                    CHANNELS 3 Zrotation Xrotation Yrotation
                                    JOINT LeftFinger12
                                    {
                                        OFFSET   2.323460   0.000000   0.000000
                                        CHANNELS 3 Zrotation Xrotation Yrotation
                                        End Site
                                        {
                                            OFFSET   2.273050   0.000000   0.000000
                                        }
                                    }
                                }
                            }
                            JOINT LeftFinger2
                            {
                                OFFSET   8.364490   0.000015   1.078090
                                CHANNELS 3 Zrotation Xrotation Yrotation
                                JOINT LeftFinger21
                                {
                                    OFFSET   5.111620   0.000000   0.000000
                                    CHANNELS 3 Zrotation Xrotation Yrotation
                                    JOINT LeftFinger22
                                    {
                                        OFFSET   2.788160   0.000016   0.000000
                                        CHANNELS 3 Zrotation Xrotation Yrotation
                                        End Site
                                        {
                                            OFFSET   2.727660   0.000000   0.000000
                                        }
                                    }
                                }
                            }
                            JOINT LeftFinger3
                            {
                                OFFSET   7.899780   0.000017  -1.078090
                                CHANNELS 3 Zrotation Xrotation Yrotation
                                JOINT LeftFinger31
                                {
                                    OFFSET   4.646930   0.000000   0.000000
                                    CHANNELS 3 Zrotation Xrotation Yrotation
                                    JOINT LeftFinger32
                                    {
                                        OFFSET   2.323470   0.000000   0.000000
                                        CHANNELS 3 Zrotation Xrotation Yrotation
                                        End Site
                                        {
                                            OFFSET   2.273050   0.000000   0.000000
                                        }
                                    }
                                }
                            }
                            JOINT LeftFinger4
                            {
                                OFFSET   7.435090   0.000000  -3.252850
                                CHANNELS 3 Zrotation Xrotation Yrotation
                                JOINT LeftFinger41
                                {
                                    OFFSET   3.717550   0.000000   0.000000
                                    CHANNELS 3 Zrotation Xrotation Yrotation
                                    JOINT LeftFinger42
                                    {
                                        OFFSET   1.858770   0.000000   0.000000
                                        CHANNELS 3 Zrotation Xrotation Yrotation
                                        End Site
                                        {
                                            OFFSET   1.818440   0.000000   0.000000
                                        }
                                    }
                                }
                            }
                        }
                    }
                }
            }
            JOINT RightCollar
            {
                OFFSET  -3.911900  19.017000  -0.467063
                CHANNELS 3 Zrotation Xrotation Yrotation
                JOINT RightShoulder
                {
                    OFFSET -10.383700   0.000019   0.000000
                    CHANNELS 3 Zrotation Xrotation Yrotation
                    JOINT RightElbow
                    {
                        OFFSET -26.662100   0.001175   0.000102
                        CHANNELS 3 Zrotation Xrotation Yrotation
                        JOINT RightWrist
                        {
                            OFFSET -28.869000   0.000016  -0.000079
                            CHANNELS 3 Zrotation Xrotation Yrotation
                            JOINT RightFinger0
                            {
                                OFFSET  -2.044660  -2.323490   3.252850
                                CHANNELS 3 Zrotation Xrotation Yrotation
                                JOINT RightFinger01
                                {
                                    OFFSET  -3.088140   0.000000   0.000000
                                    CHANNELS 3 Zrotation Xrotation Yrotation
                                    JOINT RightFinger02
                                    {
                                        OFFSET  -2.639460   0.000000   0.000000
                                        CHANNELS 3 Zrotation Xrotation Yrotation
                                        End Site
                                        {
                                            OFFSET  -2.582190   0.000000   0.000000
                                        }
                                    }
                                }
                            }
                            JOINT RightFinger1
                            {
                                OFFSET  -8.364480   0.000000   3.252850
                                CHANNELS 3 Zrotation Xrotation Yrotation
                                JOINT RightFinger11
                                {
                                    OFFSET  -4.646930   0.000000   0.000000
                                    CHANNELS 3 Zrotation Xrotation Yrotation
                                    JOINT RightFinger12
                                    {
                                        OFFSET  -2.323470   0.000000   0.000000
                                        CHANNELS 3 Zrotation Xrotation Yrotation
                                        End Site
                                        {
                                            OFFSET  -2.273050   0.000000   0.000000
                                        }
                                    }
                                }
                            }
                            JOINT RightFinger2
                            {
                                OFFSET  -8.364480   0.000000   1.078090
                                CHANNELS 3 Zrotation Xrotation Yrotation
                                JOINT RightFinger21
                                {
                                    OFFSET  -5.111620   0.000000   0.000000
                                    CHANNELS 3 Zrotation Xrotation Yrotation
                                    JOINT RightFinger22
                                    {
                                        OFFSET  -2.788160   0.000000   0.000000
                                        CHANNELS 3 Zrotation Xrotation Yrotation
                                        End Site
                                        {
                                            OFFSET  -2.727660   0.000000   0.000000
                                        }
                                    }
                                }
                            }
                            JOINT RightFinger3
                            {
                                OFFSET  -7.899780   0.000000  -1.078090
                                CHANNELS 3 Zrotation Xrotation Yrotation
                                JOINT RightFinger31
                                {
                                    OFFSET  -4.646930   0.000000   0.000000
                                    CHANNELS 3 Zrotation Xrotation Yrotation
                                    JOINT RightFinger32
                                    {
                                        OFFSET  -2.323470   0.000000   0.000000
                                        CHANNELS 3 Zrotation Xrotation Yrotation
                                        End Site
                                        {
                                            OFFSET  -2.273050   0.000000   0.000000
                                        }
                                    }
                                }
                            }
                            JOINT RightFinger4
                            {
                                OFFSET  -7.435090   0.000000  -3.252850
                                CHANNELS 3 Zrotation Xrotation Yrotation
                                JOINT RightFinger41
                                {
                                    OFFSET  -3.717550   0.000000   0.000000
                                    CHANNELS 3 Zrotation Xrotation Yrotation
                                    JOINT RightFinger42
                                    {
                                        OFFSET  -1.858770   0.000000   0.000000
                                        CHANNELS 3 Zrotation Xrotation Yrotation
                                        End Site
                                        {
                                            OFFSET  -1.818440   0.000000   0.000000
                                        }
                                    }
                                }
                            }
                        }
                    }
                }
            }
        }
    }
    JOINT LeftHip
    {
        OFFSET   9.783040   0.000000   0.000000
        CHANNELS 3 Zrotation Xrotation Yrotation
        JOINT LeftKnee
        {
            OFFSET   0.000032 -41.789100  -0.002222
            CHANNELS 3 Zrotation Xrotation Yrotation
            JOINT LeftAnkle
            {
                OFFSET   0.000087 -41.133200  -0.000135
                CHANNELS 3 Zrotation Xrotation Yrotation
                JOINT LeftToe
                {
                    OFFSET   0.000000  -6.358960  14.674500
                    CHANNELS 3 Zrotation Xrotation Yrotation
                    End Site
                    {
                        OFFSET   0.000000   0.000000   3.913200
                    }
                }
            }
        }
    }
    JOINT RightHip
    {
        OFFSET  -9.783040   0.000000   0.000000
        CHANNELS 3 Zrotation Xrotation Yrotation
        JOINT RightKnee
        {
            OFFSET   0.000047 -41.789100  -0.000896
            CHANNELS 3 Zrotation Xrotation Yrotation
            JOINT RightAnkle
            {
                OFFSET  -0.000117 -41.133300  -0.000248
                CHANNELS 3 Zrotation Xrotation Yrotation
                JOINT RightToe
                {
                    OFFSET   0.000000  -6.358970  14.674500
                    CHANNELS 3 Zrotation Xrotation Yrotation
                    End Site
                    {
                        OFFSET   0.000000   0.000000   3.913200
                    }
                }
            }
        }
    }
}
MOTION
Frames: 4
Frame Time:   0.016667
 -1.361350  89.406300  -1.688960  -1.599180 -13.696200   4.843500   2.037050  10.430000  -3.561070   4.864040  20.701400  -7.698020   4.449600  -6.833410   0.530409   7.599100 -13.605100  14.195900  -6.091250  -5.813450  -2.085270 -39.484500  23.937500 -67.113300   9.804760 -16.422900 -110.507000  42.168200 -43.183800   7.750030  35.273800  23.854700 -54.330000 -32.237600   0.000316   0.000273 -11.118800  -0.000349   0.000092 -26.783100   3.367440  -6.638790 -22.073100  -0.001194  -0.003095 -15.451200   0.000663  -0.002054 -27.739100  -0.397428   0.754774 -30.395600  -0.003135  -0.002710 -20.243500  -0.002374   0.001683 -27.544500  -0.395095   0.755789 -29.388500  -0.003609  -0.005154 -19.572700   0.000233   0.000602 -22.702500  -1.194050   2.838330 -34.097200  -0.004204  -0.009829 -22.708700  -0.004289  -0.000757  11.011000  -3.637580   9.637740  65.757600  13.415000  -1.998960   2.165820  -7.922000  11.510600 -14.027400  -5.659490   5.686530 -46.945900  36.422200  75.808100  13.250100  -0.003810   0.001005   1.625120  -0.003383  -0.008096  22.984400   5.570010  12.889500  19.320600  -0.003235  -0.003216  13.524400   0.000589  -0.003146  23.869800   4.327910   9.677910  24.236500   0.022327   0.000093  16.141500   0.015196  -0.003304  19.540400   3.187240   8.903460  19.788600   0.025004  -0.007555  13.179200   0.013308  -0.009470  22.804200   2.121350   5.031290  34.346300  -0.031499  -0.072088  22.874600  -0.050836  -0.011418   5.786860  15.009800  -0.785102   1.175590   2.275040  12.249800  -3.899750  -3.445380  -3.759220   0.000000   0.000000   0.000000   3.113100  16.193500  -4.220380   0.814512   0.543982 -22.096400   0.493497  -4.214830  -0.224361  -0.000000   0.000000   0.000000
 -1.361340  89.394900  -1.654670  -1.643820 -13.682100   4.691640   2.052190  10.443700  -3.610350   4.905910  20.725200  -7.803040   4.428070  -6.694170   0.517074   7.550410 -13.330600  14.513400  -6.019960  -5.878370  -2.117540 -39.840400  23.655200 -67.492000   9.797980 -16.980700 -109.365000  42.822700 -43.846400   9.525160  35.417900  24.100400 -54.201300 -32.224000   0.000333   0.000274 -11.112000  -0.000350   0.005854 -26.768700   3.302640  -6.472370 -22.053300  -0.001149  -0.002903 -15.437400   0.000660  -0.002061 -27.690200  -0.437048   0.832666 -30.168700  -0.003007  -0.002692 -20.092400  -0.002441   0.001583 -27.459700  -0.433813   0.834241 -29.046600  -0.003444  -0.009116 -19.345000   0.000220   0.000607 -22.590100  -1.078750   2.554920 -33.916900  -0.003751  -0.009899 -22.588600  -0.004214  -0.000800  11.073000  -3.681680   9.612800  65.610900  13.386800  -1.883630   2.116790  -7.940510  11.537400 -14.020300  -5.699140   5.724580 -46.907400  36.396800  75.784600  13.242300  -0.004078   0.001045   1.621190  -0.003443  -0.008167  22.993100   5.574390  12.893900  19.328400  -0.003230  -0.003569  13.529800   0.000765  -0.003201  23.882700   4.329000   9.677010  24.249400   0.067745  -0.028877  16.150100   0.033513  -0.035048  19.567500   3.199120   8.921470  19.817200   0.025206  -0.007626  13.198200   0.004506  -0.029777  22.851900   2.118350   5.011360  34.417100  -0.039108  -0.093548  22.921800  -0.065764  -0.014427   5.789160  15.038300  -0.757107   1.175790   2.304970  12.307000  -3.900610  -3.505170  -3.697340   0.000000   0.000000   0.000000   3.119120  16.187500  -4.237230   0.823590   0.553980 -21.997400   0.488413  -4.220410  -0.161225   0.000000   0.000000   0.000000
 -1.361280  89.384900  -1.618320  -1.691320 -13.672100   4.526640   2.067630  10.455300  -3.658990   4.947810  20.744900  -7.906630   4.404940  -6.538880   0.502455   7.497980 -13.024100  14.845800  -5.946910  -5.903700  -2.147920 -40.249900  23.351200 -67.841800   9.802010 -17.516600 -108.057000  43.635400 -44.559900  11.496200  35.550200  24.360800 -54.046600 -32.210400   0.000351   0.000275 -11.105200  -0.000350   0.012513 -26.716100   3.204960  -6.339470 -22.004000  -0.001112  -0.002698 -15.402800   0.000654  -0.002069 -27.606100  -0.476665   0.910560 -29.755800  -0.002885  -0.002620 -19.817400  -0.002506   0.001482 -27.331000  -0.472529   0.912695 -28.453000  -0.003283  -0.011085 -18.949700   0.000207   0.000615 -22.300500  -0.919876   2.188030 -33.472600  -0.003321  -0.009928 -22.292700  -0.004131  -0.000843  11.126300  -3.720310   9.583770  65.472200  13.338200  -1.765520   2.062580  -7.952930  11.572900 -14.012300  -5.744260   5.765900 -46.873300  36.371800  75.761000  13.236800  -0.004344   0.001083   1.618400  -0.003503  -0.008237  22.997200   5.576260  12.895500  19.332000  -0.003193  -0.003902  13.532400   0.000975  -0.003249  23.892500   4.329240   9.670610  24.259100   0.100479  -0.066829  16.156600   0.045995  -0.064854  19.593900   3.207350   8.932490  19.844500   0.025235  -0.007636  13.216400  -0.008635  -0.043503  22.900300   2.114250   4.991220  34.488800  -0.041271  -0.099319  22.969600  -0.070334  -0.014857   5.790150  15.072500  -0.728182   1.174260   2.343770  12.367200  -3.900890  -3.574660  -3.627380  -0.000000   0.000000  -0.000000   3.124090  16.182600  -4.252410   0.830488   0.569210 -21.890300   0.490891  -4.228940  -0.093643  -0.000000   0.000000   0.000000
 -1.358240  89.377300  -1.579550  -1.743260 -13.667000   4.340390   2.082540  10.467100  -3.704600   4.988270  20.764900  -8.003930   4.378450  -6.377740   0.487226   7.440600 -12.705700  15.195600  -5.871340  -5.903750  -2.173610 -40.699800  23.040600 -68.124800   9.908380 -18.001800 -106.605000  45.025200 -45.200600  13.930800  35.590900  24.469100 -53.821500 -32.220400   0.000376   0.000289 -11.110200  -0.000349   0.013112 -26.658500   3.163720  -6.271960 -21.953500  -0.001085  -0.002478 -15.367500   0.000650  -0.002065 -27.544900  -0.421656   0.811530 -29.365900  -0.002769  -0.002483 -19.557700  -0.002575   0.001377 -27.291300  -0.418827   0.812514 -27.909700  -0.003115  -0.010847 -18.587800   0.000194   0.000618 -21.839200  -0.671864   1.628550 -32.769000  -0.002907  -0.009726 -21.824100  -0.004032  -0.000886  11.171500  -3.758300   9.553060  65.347100  13.295200  -1.650180   2.001960  -7.959670  11.616700 -14.009300  -5.816290   5.808460 -46.835500  36.348700  75.738100  13.252200  -0.004610   0.001159   1.626090  -0.003558  -0.008305  22.993900   5.568130  12.879400  19.327800  -0.003061  -0.004276  13.529500   0.001100  -0.003299  23.899400   4.321350   9.648100  24.263700   0.089108  -0.077309  16.159600   0.032562  -0.064787  19.618900   3.208920   8.927770  19.869400   0.010047  -0.001237  13.233000  -0.017189  -0.036828  22.948600   2.110660   4.971190  34.560400  -0.024080  -0.062208  23.017300  -0.042972  -0.007441   5.791340  15.115700  -0.688854   1.169410   2.388600  12.429000  -3.900970  -3.652990  -3.549160   0.000000   0.000000   0.000000   3.120850  16.188000  -4.254770   0.837034   0.580781 -21.781800   0.497235  -4.234950  -0.020178   0.000000   0.000000   0.000000
